<svg width="21" height="18" viewBox="0 0 21 18" fill="none" xmlns="http://www.w3.org/2000/svg">
<path d="M19.25 6.29143L19.1275 6C19.2999 6 19.4705 5.96674 19.6298 5.90213C19.789 5.83752 19.9337 5.74281 20.0556 5.62342C20.1775 5.50403 20.2741 5.3623 20.3401 5.20631C20.4061 5.05032 20.44 4.88313 20.44 4.71429C20.44 4.54544 20.4061 4.37825 20.3401 4.22226C20.2741 4.06627 20.1775 3.92454 20.0556 3.80515C19.9337 3.68576 19.789 3.59105 19.6298 3.52644C19.4705 3.46183 19.2999 3.42857 19.1275 3.42857H18.0512L17.0713 1.03714C16.8761 0.721468 16.6014 0.460261 16.2735 0.278629C15.9456 0.0969974 15.5755 0.00104687 15.1988 0H5.80125C5.41215 0.00382093 5.03095 0.108043 4.69606 0.302164C4.36118 0.496285 4.08445 0.773445 3.89375 1.10571L2.94 3.42857H1.855C1.68264 3.42857 1.51197 3.46183 1.35273 3.52644C1.19349 3.59105 1.0488 3.68576 0.926922 3.80515C0.805045 3.92454 0.708367 4.06627 0.642408 4.22226C0.576449 4.37825 0.5425 4.54544 0.5425 4.71429C0.5425 4.88313 0.576449 5.05032 0.642408 5.20631C0.708367 5.3623 0.805045 5.50403 0.926922 5.62342C1.0488 5.74281 1.19349 5.83752 1.35273 5.90213C1.51197 5.96674 1.68264 6 1.855 6L1.75 6.29143C1.22669 6.53459 0.784501 6.91814 0.474748 7.39756C0.164994 7.87698 0.000377022 8.43262 4.55999e-08 9V13.2857C-0.000102878 13.7797 0.17403 14.2586 0.492929 14.6412C0.811827 15.0239 1.2559 15.2869 1.75 15.3857V16.7143C1.75 17.0553 1.88828 17.3823 2.13442 17.6234C2.38056 17.8645 2.7144 18 3.0625 18H3.9375C4.2856 18 4.61944 17.8645 4.86558 17.6234C5.11172 17.3823 5.25 17.0553 5.25 16.7143V15.4286H15.75V16.7143C15.75 17.0553 15.8883 17.3823 16.1344 17.6234C16.3806 17.8645 16.7144 18 17.0625 18H17.9375C18.2856 18 18.6194 17.8645 18.8656 17.6234C19.1117 17.3823 19.25 17.0553 19.25 16.7143V15.3857C19.7441 15.2869 20.1882 15.0239 20.5071 14.6412C20.826 14.2586 21.0001 13.7797 21 13.2857V9C20.9996 8.43262 20.835 7.87698 20.5253 7.39756C20.2155 6.91814 19.7733 6.53459 19.25 6.29143ZM19.145 4.28571C19.227 4.28555 19.3074 4.30797 19.377 4.3504C19.4466 4.39284 19.5027 4.45358 19.5387 4.52571C19.5715 4.59112 19.5866 4.66361 19.5828 4.73635C19.579 4.80908 19.5563 4.87967 19.5169 4.94143C19.4775 5.00319 19.4226 5.0541 19.3576 5.08934C19.2925 5.12458 19.2193 5.143 19.145 5.14286H18.7513L18.4013 4.28571H19.145ZM2.94 5.74286L3.64 4.02857L4.6725 1.45714C4.79303 1.27136 4.95994 1.11876 5.15745 1.01377C5.35496 0.908777 5.57655 0.854871 5.80125 0.857143H15.1988C15.4145 0.856122 15.6271 0.907208 15.8179 1.00588C16.0087 1.10455 16.1717 1.24777 16.2925 1.42286L18.165 6H2.835L2.94 5.74286ZM1.855 5.14286C1.73897 5.14286 1.62769 5.0977 1.54564 5.01733C1.46359 4.93696 1.4175 4.82795 1.4175 4.71429C1.4175 4.60062 1.46359 4.49161 1.54564 4.41124C1.62769 4.33087 1.73897 4.28571 1.855 4.28571H2.625L2.275 5.14286H1.855ZM4.375 16.7143C4.375 16.828 4.32891 16.937 4.24686 17.0173C4.16481 17.0977 4.05353 17.1429 3.9375 17.1429H3.0625C2.94647 17.1429 2.83519 17.0977 2.75314 17.0173C2.67109 16.937 2.625 16.828 2.625 16.7143V15.4286H4.375V16.7143ZM6.65875 14.5714L7.16625 12H13.8512L14.3587 14.5714H6.65875ZM18.375 16.7143C18.375 16.828 18.3289 16.937 18.2469 17.0173C18.1648 17.0977 18.0535 17.1429 17.9375 17.1429H17.0625C16.9465 17.1429 16.8352 17.0977 16.7531 17.0173C16.6711 16.937 16.625 16.828 16.625 16.7143V15.4286H18.375V16.7143ZM20.125 13.2857C20.125 13.6267 19.9867 13.9537 19.7406 14.1949C19.4944 14.436 19.1606 14.5714 18.8125 14.5714H15.2337L14.63 11.4943C14.6116 11.3959 14.5587 11.3069 14.4804 11.2427C14.4021 11.1786 14.3033 11.1432 14.2012 11.1429H6.79875C6.69665 11.1432 6.5979 11.1786 6.5196 11.2427C6.4413 11.3069 6.38838 11.3959 6.37 11.4943L5.76625 14.5714H2.1875C1.8394 14.5714 1.50556 14.436 1.25942 14.1949C1.01328 13.9537 0.875 13.6267 0.875 13.2857V9C0.875 8.43168 1.10547 7.88663 1.5157 7.48477C1.92594 7.08291 2.48234 6.85714 3.0625 6.85714H17.9375C18.5177 6.85714 19.0741 7.08291 19.4843 7.48477C19.8945 7.88663 20.125 8.43168 20.125 9V13.2857ZM5.6875 7.71429H3.0625C2.7144 7.71429 2.38056 7.84974 2.13442 8.09086C1.88828 8.33198 1.75 8.65901 1.75 9V9.85714C1.75 9.97081 1.79609 10.0798 1.87814 10.1602C1.96019 10.2406 2.07147 10.2857 2.1875 10.2857H5.6875C5.80353 10.2857 5.91481 10.2406 5.99686 10.1602C6.07891 10.0798 6.125 9.97081 6.125 9.85714V8.14286C6.125 8.02919 6.07891 7.92018 5.99686 7.83981C5.91481 7.75944 5.80353 7.71429 5.6875 7.71429ZM5.25 9.42857H2.625V9C2.625 8.88634 2.67109 8.77733 2.75314 8.69695C2.83519 8.61658 2.94647 8.57143 3.0625 8.57143H5.25V9.42857ZM3.0625 11.1429C2.80291 11.1429 2.54915 11.2183 2.33331 11.3595C2.11747 11.5008 1.94925 11.7016 1.84991 11.9365C1.75057 12.1715 1.72458 12.43 1.77522 12.6794C1.82586 12.9288 1.95087 13.1579 2.13442 13.3377C2.31798 13.5175 2.55184 13.64 2.80644 13.6896C3.06104 13.7392 3.32494 13.7137 3.56477 13.6164C3.8046 13.5191 4.00958 13.3543 4.1538 13.1429C4.29802 12.9314 4.375 12.6829 4.375 12.4286C4.375 12.0876 4.23672 11.7606 3.99058 11.5194C3.74444 11.2783 3.4106 11.1429 3.0625 11.1429ZM3.0625 12.8571C2.97597 12.8571 2.89138 12.832 2.81944 12.7849C2.74749 12.7378 2.69142 12.6709 2.6583 12.5926C2.62519 12.5143 2.61653 12.4281 2.63341 12.345C2.65029 12.2618 2.69196 12.1855 2.75314 12.1255C2.81433 12.0656 2.89228 12.0248 2.97715 12.0082C3.06201 11.9917 3.14998 12.0002 3.22992 12.0326C3.30987 12.0651 3.37819 12.12 3.42627 12.1905C3.47434 12.2609 3.5 12.3438 3.5 12.4286C3.5 12.5422 3.45391 12.6512 3.37186 12.7316C3.28981 12.812 3.17853 12.8571 3.0625 12.8571ZM12.6875 8.57143H9.1875C9.07147 8.57143 8.96019 8.61658 8.87814 8.69695C8.79609 8.77733 8.75 8.88634 8.75 9C8.75 9.11366 8.79609 9.22267 8.87814 9.30305C8.96019 9.38342 9.07147 9.42857 9.1875 9.42857H12.6875C12.8035 9.42857 12.9148 9.38342 12.9969 9.30305C13.0789 9.22267 13.125 9.11366 13.125 9C13.125 8.88634 13.0789 8.77733 12.9969 8.69695C12.9148 8.61658 12.8035 8.57143 12.6875 8.57143ZM17.9375 7.71429H15.3125C15.1965 7.71429 15.0852 7.75944 15.0031 7.83981C14.9211 7.92018 14.875 8.02919 14.875 8.14286V9.85714C14.875 9.97081 14.9211 10.0798 15.0031 10.1602C15.0852 10.2406 15.1965 10.2857 15.3125 10.2857H18.8125C18.9285 10.2857 19.0398 10.2406 19.1219 10.1602C19.2039 10.0798 19.25 9.97081 19.25 9.85714V9C19.25 8.65901 19.1117 8.33198 18.8656 8.09086C18.6194 7.84974 18.2856 7.71429 17.9375 7.71429ZM18.375 9.42857H15.75V8.57143H17.9375C18.0535 8.57143 18.1648 8.61658 18.2469 8.69695C18.3289 8.77733 18.375 8.88634 18.375 9V9.42857ZM17.9375 11.1429C17.6779 11.1429 17.4242 11.2183 17.2083 11.3595C16.9925 11.5008 16.8242 11.7016 16.7249 11.9365C16.6256 12.1715 16.5996 12.43 16.6502 12.6794C16.7009 12.9288 16.8259 13.1579 17.0094 13.3377C17.193 13.5175 17.4268 13.64 17.6814 13.6896C17.936 13.7392 18.1999 13.7137 18.4398 13.6164C18.6796 13.5191 18.8846 13.3543 19.0288 13.1429C19.173 12.9314 19.25 12.6829 19.25 12.4286C19.25 12.0876 19.1117 11.7606 18.8656 11.5194C18.6194 11.2783 18.2856 11.1429 17.9375 11.1429ZM17.9375 12.8571C17.851 12.8571 17.7664 12.832 17.6944 12.7849C17.6225 12.7378 17.5664 12.6709 17.5333 12.5926C17.5002 12.5143 17.4915 12.4281 17.5084 12.345C17.5253 12.2618 17.567 12.1855 17.6281 12.1255C17.6893 12.0656 17.7673 12.0248 17.8521 12.0082C17.937 11.9917 18.025 12.0002 18.1049 12.0326C18.1849 12.0651 18.2532 12.12 18.3013 12.1905C18.3493 12.2609 18.375 12.3438 18.375 12.4286C18.375 12.5422 18.3289 12.6512 18.2469 12.7316C18.1648 12.812 18.0535 12.8571 17.9375 12.8571Z" fill="black"/>
</svg>
