<svg width="21" height="21" viewBox="0 0 21 21" fill="none" xmlns="http://www.w3.org/2000/svg">
<path d="M11 15H10C9.73478 15 9.48043 15.1054 9.29289 15.2929C9.10536 15.4804 9 15.7348 9 16C9 16.2652 9.10536 16.5196 9.29289 16.7071C9.48043 16.8946 9.73478 17 10 17H11C11.2652 17 11.5196 16.8946 11.7071 16.7071C11.8946 16.5196 12 16.2652 12 16C12 15.7348 11.8946 15.4804 11.7071 15.2929C11.5196 15.1054 11.2652 15 11 15ZM11 11H10C9.73478 11 9.48043 11.1054 9.29289 11.2929C9.10536 11.4804 9 11.7348 9 12C9 12.2652 9.10536 12.5196 9.29289 12.7071C9.48043 12.8946 9.73478 13 10 13H11C11.2652 13 11.5196 12.8946 11.7071 12.7071C11.8946 12.5196 12 12.2652 12 12C12 11.7348 11.8946 11.4804 11.7071 11.2929C11.5196 11.1054 11.2652 11 11 11ZM6 15H5C4.73478 15 4.48043 15.1054 4.29289 15.2929C4.10536 15.4804 4 15.7348 4 16C4 16.2652 4.10536 16.5196 4.29289 16.7071C4.48043 16.8946 4.73478 17 5 17H6C6.26522 17 6.51957 16.8946 6.70711 16.7071C6.89464 16.5196 7 16.2652 7 16C7 15.7348 6.89464 15.4804 6.70711 15.2929C6.51957 15.1054 6.26522 15 6 15ZM6 11H5C4.73478 11 4.48043 11.1054 4.29289 11.2929C4.10536 11.4804 4 11.7348 4 12C4 12.2652 4.10536 12.5196 4.29289 12.7071C4.48043 12.8946 4.73478 13 5 13H6C6.26522 13 6.51957 12.8946 6.70711 12.7071C6.89464 12.5196 7 12.2652 7 12C7 11.7348 6.89464 11.4804 6.70711 11.2929C6.51957 11.1054 6.26522 11 6 11ZM20 5H17V1C17 0.734784 16.8946 0.48043 16.7071 0.292893C16.5196 0.105357 16.2652 0 16 0H5C4.73478 0 4.48043 0.105357 4.29289 0.292893C4.10536 0.48043 4 0.734784 4 1V5H1C0.734784 5 0.48043 5.10536 0.292893 5.29289C0.105357 5.48043 0 5.73478 0 6V20C0 20.2652 0.105357 20.5196 0.292893 20.7071C0.48043 20.8946 0.734784 21 1 21H20C20.2652 21 20.5196 20.8946 20.7071 20.7071C20.8946 20.5196 21 20.2652 21 20V6C21 5.73478 20.8946 5.48043 20.7071 5.29289C20.5196 5.10536 20.2652 5 20 5ZM19 19H2V7H5C5.26522 7 5.51957 6.89464 5.70711 6.70711C5.89464 6.51957 6 6.26522 6 6V2H15V6C15 6.26522 15.1054 6.51957 15.2929 6.70711C15.4804 6.89464 15.7348 7 16 7H19V19ZM15 11C14.7348 11 14.4804 11.1054 14.2929 11.2929C14.1054 11.4804 14 11.7348 14 12C14 12.2652 14.1054 12.5196 14.2929 12.7071C14.4804 12.8946 14.7348 13 15 13H16C16.2652 13 16.5196 12.8946 16.7071 12.7071C16.8946 12.5196 17 12.2652 17 12C17 11.7348 16.8946 11.4804 16.7071 11.2929C16.5196 11.1054 16.2652 11 16 11H15ZM12 5.5H11.5V5C11.5 4.73478 11.3946 4.48043 11.2071 4.29289C11.0196 4.10536 10.7652 4 10.5 4C10.2348 4 9.98043 4.10536 9.79289 4.29289C9.60536 4.48043 9.5 4.73478 9.5 5V5.5H9C8.73478 5.5 8.48043 5.60536 8.29289 5.79289C8.10536 5.98043 8 6.23478 8 6.5C8 6.76522 8.10536 7.01957 8.29289 7.20711C8.48043 7.39464 8.73478 7.5 9 7.5H9.5V8C9.5 8.26522 9.60536 8.51957 9.79289 8.70711C9.98043 8.89464 10.2348 9 10.5 9C10.7652 9 11.0196 8.89464 11.2071 8.70711C11.3946 8.51957 11.5 8.26522 11.5 8V7.5H12C12.2652 7.5 12.5196 7.39464 12.7071 7.20711C12.8946 7.01957 13 6.76522 13 6.5C13 6.23478 12.8946 5.98043 12.7071 5.79289C12.5196 5.60536 12.2652 5.5 12 5.5ZM16 15H15C14.7348 15 14.4804 15.1054 14.2929 15.2929C14.1054 15.4804 14 15.7348 14 16C14 16.2652 14.1054 16.5196 14.2929 16.7071C14.4804 16.8946 14.7348 17 15 17H16C16.2652 17 16.5196 16.8946 16.7071 16.7071C16.8946 16.5196 17 16.2652 17 16C17 15.7348 16.8946 15.4804 16.7071 15.2929C16.5196 15.1054 16.2652 15 16 15Z" fill="black"/>
</svg>
