<svg width="19" height="22" viewBox="0 0 19 22" fill="none" xmlns="http://www.w3.org/2000/svg">
<path d="M1.87964 22V21.3826L3.91536 20.0462C2.82421 20.0462 1.8991 19.672 1.14 18.9236C0.38 18.177 0 17.2664 0 16.192V4.00923C0 2.58907 0.740095 1.56583 2.22029 0.939497C3.70229 0.313166 6.12886 0 9.5 0C12.9037 0 15.3375 0.309156 16.8014 0.927469C18.2653 1.54578 18.9982 2.57304 19 4.00923V16.192C19 17.2655 18.62 18.1765 17.86 18.9249C17.1009 19.6724 16.1762 20.0462 15.086 20.0462L17.1217 21.3826V22H1.87964ZM1.35714 10.6913H8.82143V4.72956H1.35714V10.6913ZM15.086 12.0277H1.35714H17.6429H15.086ZM10.1786 10.6913H17.6429V4.72956H10.1786V10.6913ZM4.75 16.8602C5.17614 16.8602 5.53488 16.7163 5.82621 16.4285C6.11845 16.1416 6.26457 15.7884 6.26457 15.3687C6.26457 14.9491 6.11845 14.5958 5.82621 14.309C5.53488 14.0212 5.17614 13.8773 4.75 13.8773C4.32386 13.8773 3.96512 14.0212 3.67379 14.309C3.38155 14.5958 3.23543 14.9491 3.23543 15.3687C3.23543 15.7884 3.38155 16.1416 3.67379 16.4285C3.96512 16.7163 4.32386 16.8602 4.75 16.8602ZM14.25 16.8602C14.6761 16.8602 15.0349 16.7163 15.3262 16.4285C15.6185 16.1416 15.7646 15.7884 15.7646 15.3687C15.7646 14.9491 15.6185 14.5958 15.3262 14.309C15.0349 14.0212 14.6761 13.8773 14.25 13.8773C13.8239 13.8773 13.4651 14.0212 13.1738 14.309C12.8815 14.5958 12.7354 14.9491 12.7354 15.3687C12.7354 15.7884 12.8815 16.1416 13.1738 16.4285C13.4651 16.7163 13.8239 16.8602 14.25 16.8602ZM3.91536 18.7098H15.0846C15.7949 18.7098 16.3988 18.4647 16.8964 17.9747C17.394 17.4847 17.6429 16.89 17.6429 16.1906V12.0277H1.35714V16.192C1.35714 16.8905 1.60595 17.4847 2.10357 17.9747C2.60119 18.4647 3.20512 18.7098 3.91536 18.7098ZM9.5 1.33641C7.01552 1.33641 5.13 1.50346 3.84343 1.83757C2.55686 2.17167 1.77514 2.6902 1.49829 3.39315H17.5329C17.2823 2.6902 16.5137 2.17167 15.2271 1.83757C13.9406 1.50346 12.0315 1.33641 9.5 1.33641ZM9.5 3.39315H17.5329H1.49829H9.5Z" fill="black"/>
</svg>
