<svg width="26" height="26" viewBox="0 0 26 26" fill="none" xmlns="http://www.w3.org/2000/svg">
<path fill-rule="evenodd" clip-rule="evenodd" d="M10.0609 17.0369C10.2436 16.9885 10.4382 17.0388 10.5746 17.1696L12.3343 18.8574C12.4805 18.9976 12.5362 19.2079 12.4786 19.4022L12.0944 20.6986C11.9986 21.0223 11.8043 21.308 11.5385 21.5162L9.02351 23.4863C8.31701 24.0398 7.29564 23.9157 6.74222 23.2092C6.18875 22.5027 6.31284 21.4813 7.01934 20.9279L9.12583 19.2777L9.68033 17.4066C9.73401 17.2254 9.87826 17.0853 10.0609 17.0369ZM10.4664 18.5669L10.1154 19.7513C10.0834 19.8592 10.0187 19.9544 9.93004 20.0238L7.68738 21.7807C7.45191 21.9652 7.41053 22.3056 7.59502 22.5411C7.77951 22.7766 8.11995 22.818 8.35547 22.6335L10.8705 20.6633C10.959 20.5939 11.0238 20.4987 11.0558 20.3908L11.3462 19.4108L10.4664 18.5669ZM15.1667 6.49999C16.0642 6.49999 16.7917 5.77248 16.7917 4.87499C16.7917 3.97753 16.0642 3.24999 15.1667 3.24999C14.2693 3.24999 13.5417 3.97753 13.5417 4.87499C13.5417 5.77248 14.2693 6.49999 15.1667 6.49999ZM15.1667 7.58332C16.6625 7.58332 17.875 6.37075 17.875 4.87499C17.875 3.37922 16.6625 2.16666 15.1667 2.16666C13.671 2.16666 12.4584 3.37922 12.4584 4.87499C12.4584 6.37075 13.671 7.58332 15.1667 7.58332Z" fill="black"/>
<path fill-rule="evenodd" clip-rule="evenodd" d="M11.7741 7.78068C12.5475 7.49321 13.3784 7.51011 14.1244 7.89583C14.8341 8.26276 15.3147 8.88313 15.617 9.53237C15.7302 9.77525 15.8347 10.0021 15.9325 10.2142C16.1707 10.7308 16.3663 11.1549 16.5528 11.5255C16.8163 12.0491 17.0089 12.3558 17.179 12.554C17.3248 12.7239 17.4505 12.8101 17.6115 12.8729C17.8017 12.9473 18.1119 13.0152 18.6637 13.0318C19.4993 13.0568 20.1562 13.7544 20.1312 14.59C20.1061 15.4255 19.4085 16.0825 18.573 16.0575C17.838 16.0354 17.1462 15.941 16.5102 15.6926C15.8448 15.4326 15.3199 15.0357 14.8821 14.5256C14.8301 14.4651 14.7797 14.4032 14.7305 14.3402L14.5125 15.4797L16.878 17.8138C17.0286 17.9624 17.1465 18.1411 17.2238 18.3381L18.5694 21.7667C18.8748 22.5448 18.4916 23.4231 17.7135 23.7285C16.9354 24.0339 16.0571 23.6507 15.7517 22.8726L14.5233 19.743L10.2664 15.5425C9.9358 15.2164 9.77325 14.7564 9.82547 14.295L10.0015 12.7401C9.51823 13.3652 9.11171 14.1162 8.82815 15.0048C8.574 15.8011 7.72239 16.2406 6.92609 15.9865C6.12978 15.7323 5.69022 14.8807 5.94437 14.0844C6.90182 11.0846 9.06773 8.8255 11.7561 7.78745L11.7593 7.7862L11.7741 7.78068ZM12.153 8.79554L12.1448 8.79868C9.77081 9.71583 7.83647 11.7192 6.97646 14.4138C6.9042 14.6402 7.02911 14.8822 7.25547 14.9545C7.48178 15.0267 7.72385 14.9018 7.79611 14.6754C8.33437 12.9889 9.27215 11.7133 10.3746 10.8129C10.5452 10.6736 10.7832 10.6515 10.9766 10.7569C11.1699 10.8624 11.2802 11.0745 11.2554 11.2934L10.902 14.4168C10.8871 14.5479 10.9333 14.6787 11.0273 14.7714L15.366 19.0525C15.4199 19.1057 15.4621 19.1697 15.4898 19.2402L16.7601 22.4768C16.8469 22.698 17.0966 22.8069 17.3177 22.7201C17.5389 22.6333 17.6478 22.3836 17.561 22.1625L16.2153 18.7339C16.1934 18.6779 16.1599 18.6271 16.117 18.5849L13.5456 16.0476C13.4169 15.9206 13.3601 15.7378 13.3941 15.5603L13.9253 12.7837C13.9686 12.5575 14.1501 12.3835 14.3778 12.3497C14.6056 12.3159 14.8298 12.4298 14.9369 12.6337C15.1807 13.0979 15.4249 13.4947 15.7041 13.82C16.0375 14.2084 16.4196 14.4941 16.9043 14.6835C17.3809 14.8696 17.9362 14.9546 18.6054 14.9746C18.8429 14.9818 19.0412 14.795 19.0484 14.5575C19.0555 14.3201 18.8688 14.1217 18.6312 14.1146C18.0141 14.0961 17.5672 14.0187 17.2174 13.8821C16.876 13.7487 16.6075 13.5514 16.357 13.2596C16.0996 12.9598 15.8598 12.5585 15.5851 12.0125C15.3893 11.6235 15.1865 11.1835 14.9519 10.6746L14.9488 10.668C14.8509 10.4557 14.7472 10.2305 14.635 9.9897C14.4022 9.4898 14.0655 9.0849 13.6268 8.8581C13.1785 8.62632 12.6685 8.60439 12.153 8.79554Z" fill="black"/>
</svg>
